<svg width="438" height="232" viewBox="0 0 438 232" fill="none" xmlns="http://www.w3.org/2000/svg">
<rect width="437.817" height="231.52" rx="6.4246" fill="white"/>
<path d="M191.24 44.0889C190.515 44.0889 189.845 43.9483 189.228 43.667C188.622 43.3857 188.124 42.98 187.735 42.4499L188.936 41.0055C189.249 41.4383 189.59 41.7629 189.958 41.9792C190.337 42.1956 190.748 42.3038 191.191 42.3038C192.371 42.3038 192.96 41.606 192.96 40.2104V34.3357H188.919V32.5668H195.07V40.0968C195.07 41.4383 194.74 42.439 194.08 43.099C193.431 43.7589 192.484 44.0889 191.24 44.0889ZM203.174 43.9266V42.174L203.06 41.8007V38.7336C203.06 38.1385 202.881 37.6787 202.524 37.3542C202.167 37.0188 201.626 36.8511 200.902 36.8511C200.415 36.8511 199.933 36.9268 199.457 37.0783C198.992 37.2298 198.597 37.4407 198.273 37.7112L197.477 36.2344C197.943 35.8774 198.494 35.6123 199.133 35.4392C199.782 35.2553 200.453 35.1634 201.145 35.1634C202.4 35.1634 203.368 35.4663 204.05 36.0721C204.742 36.6672 205.088 37.5922 205.088 38.8472V43.9266H203.174ZM200.447 44.0402C199.798 44.0402 199.23 43.932 198.743 43.7157C198.256 43.4885 197.878 43.1801 197.607 42.7907C197.348 42.3904 197.218 41.9414 197.218 41.4437C197.218 40.9569 197.331 40.5187 197.559 40.1292C197.797 39.7397 198.181 39.4314 198.711 39.2042C199.241 38.977 199.944 38.8634 200.82 38.8634H203.336V40.2104H200.966C200.274 40.2104 199.809 40.324 199.571 40.5511C199.333 40.7675 199.214 41.038 199.214 41.3626C199.214 41.7304 199.36 42.0225 199.652 42.2389C199.944 42.4553 200.35 42.5635 200.869 42.5635C201.367 42.5635 201.81 42.4499 202.2 42.2227C202.6 41.9955 202.887 41.6601 203.06 41.2165L203.401 42.4336C203.206 42.9421 202.854 43.337 202.346 43.6183C201.848 43.8996 201.215 44.0402 200.447 44.0402ZM212.609 35.1634C213.301 35.1634 213.918 35.2986 214.459 35.5691C215.011 35.8395 215.444 36.2561 215.757 36.8186C216.071 37.3704 216.228 38.0844 216.228 38.9608V43.9266H214.199V39.2204C214.199 38.4523 214.015 37.8789 213.648 37.5002C213.291 37.1216 212.788 36.9322 212.138 36.9322C211.662 36.9322 211.24 37.0296 210.873 37.2243C210.505 37.4191 210.218 37.7112 210.012 38.1007C209.818 38.4793 209.72 38.9608 209.72 39.545V43.9266H207.692V35.2607H209.623V37.5976L209.282 36.8836C209.585 36.3318 210.023 35.9099 210.597 35.6177C211.181 35.3148 211.852 35.1634 212.609 35.1634ZM222.89 44.0402C221.928 44.0402 221.084 43.8509 220.359 43.4722C219.645 43.0828 219.088 42.5526 218.687 41.8819C218.298 41.2111 218.103 40.4484 218.103 39.5937C218.103 38.7282 218.292 37.9654 218.671 37.3055C219.061 36.6347 219.591 36.11 220.261 35.7313C220.943 35.3527 221.717 35.1634 222.582 35.1634C223.426 35.1634 224.178 35.3473 224.838 35.7151C225.498 36.083 226.017 36.6023 226.396 37.273C226.774 37.9438 226.964 38.7336 226.964 39.6424C226.964 39.7289 226.958 39.8263 226.947 39.9345C226.947 40.0427 226.942 40.1454 226.931 40.2428H219.71V38.8959H225.86L225.065 39.3178C225.076 38.8201 224.973 38.382 224.757 38.0033C224.54 37.6246 224.243 37.3271 223.864 37.1107C223.496 36.8944 223.069 36.7862 222.582 36.7862C222.084 36.7862 221.646 36.8944 221.268 37.1107C220.9 37.3271 220.608 37.6301 220.391 38.0195C220.186 38.3982 220.083 38.8472 220.083 39.3665V39.691C220.083 40.2104 220.202 40.6702 220.44 41.0705C220.678 41.4708 221.013 41.7791 221.446 41.9955C221.879 42.2118 222.377 42.32 222.939 42.32C223.426 42.32 223.864 42.2443 224.254 42.0928C224.643 41.9414 224.989 41.7034 225.292 41.3788L226.379 42.6284C225.99 43.0828 225.498 43.4344 224.903 43.6832C224.318 43.9212 223.648 44.0402 222.89 44.0402ZM228.912 43.9266V35.2607H230.941V43.9266H228.912ZM229.935 33.8326C229.556 33.8326 229.242 33.7136 228.993 33.4756C228.755 33.2376 228.636 32.9509 228.636 32.6155C228.636 32.2693 228.755 31.9826 228.993 31.7554C229.242 31.5174 229.556 31.3984 229.935 31.3984C230.313 31.3984 230.622 31.512 230.86 31.7392C231.108 31.9556 231.233 32.2314 231.233 32.5668C231.233 32.9238 231.114 33.2268 230.876 33.4756C230.638 33.7136 230.324 33.8326 229.935 33.8326ZM233.603 43.9266V35.2607H235.534V37.6463L235.307 36.9485C235.567 36.3642 235.973 35.9207 236.524 35.6177C237.087 35.3148 237.785 35.1634 238.618 35.1634V37.0945C238.531 37.0729 238.45 37.0621 238.374 37.0621C238.299 37.0512 238.223 37.0458 238.147 37.0458C237.379 37.0458 236.768 37.273 236.313 37.7274C235.859 38.171 235.632 38.8364 235.632 39.7235V43.9266H233.603ZM244.154 44.0402C243.267 44.0402 242.477 43.8509 241.785 43.4722C241.092 43.0828 240.546 42.5526 240.146 41.8819C239.745 41.2111 239.545 40.4484 239.545 39.5937C239.545 38.7282 239.745 37.9654 240.146 37.3055C240.546 36.6347 241.092 36.11 241.785 35.7313C242.477 35.3527 243.267 35.1634 244.154 35.1634C245.052 35.1634 245.847 35.3527 246.54 35.7313C247.243 36.11 247.789 36.6293 248.179 37.2893C248.579 37.9492 248.779 38.7174 248.779 39.5937C248.779 40.4484 248.579 41.2111 248.179 41.8819C247.789 42.5526 247.243 43.0828 246.54 43.4722C245.847 43.8509 245.052 44.0402 244.154 44.0402ZM244.154 42.3038C244.652 42.3038 245.095 42.1956 245.485 41.9792C245.874 41.7629 246.177 41.4491 246.394 41.038C246.621 40.6269 246.734 40.1454 246.734 39.5937C246.734 39.0311 246.621 38.5497 246.394 38.1494C246.177 37.7382 245.874 37.4245 245.485 37.2081C245.095 36.9917 244.657 36.8836 244.17 36.8836C243.673 36.8836 243.229 36.9917 242.84 37.2081C242.461 37.4245 242.158 37.7382 241.931 38.1494C241.704 38.5497 241.59 39.0311 241.59 39.5937C241.59 40.1454 241.704 40.6269 241.931 41.038C242.158 41.4491 242.461 41.7629 242.84 41.9792C243.229 42.1956 243.667 42.3038 244.154 42.3038Z" fill="black"/>
<path d="M14.6257 66.5387V62.1141L14.9139 62.4292H13.5664V61.8459H15.2894V66.5387H14.6257ZM18.2868 66.5923C17.8712 66.5923 17.5159 66.5007 17.2209 66.3175C16.9259 66.1342 16.7002 65.8705 16.5438 65.5264C16.3918 65.1778 16.3158 64.7532 16.3158 64.2527C16.3158 63.7208 16.4097 63.2716 16.5974 62.9052C16.7851 62.5387 17.0466 62.2616 17.3818 62.0739C17.717 61.8862 18.1013 61.7923 18.5348 61.7923C18.7583 61.7923 18.9706 61.8147 19.1717 61.8594C19.3773 61.904 19.5538 61.9733 19.7013 62.0672L19.4466 62.5901C19.3259 62.5052 19.1874 62.4471 19.0309 62.4158C18.879 62.3845 18.7181 62.3688 18.5483 62.3688C18.07 62.3688 17.6902 62.5186 17.4086 62.818C17.127 63.113 16.9862 63.5532 16.9862 64.1387C16.9862 64.2325 16.9907 64.3443 16.9996 64.4739C17.0086 64.6035 17.0309 64.7309 17.0667 64.856L16.8388 64.6281C16.9058 64.4225 17.0108 64.2504 17.1538 64.1119C17.3013 63.9689 17.4756 63.8638 17.6767 63.7968C17.8823 63.7253 18.1036 63.6895 18.3404 63.6895C18.6533 63.6895 18.9304 63.7476 19.1717 63.8638C19.4131 63.98 19.603 64.1454 19.7416 64.3599C19.8801 64.57 19.9494 64.8203 19.9494 65.1108C19.9494 65.4102 19.8756 65.6717 19.7281 65.8951C19.5807 66.1186 19.3818 66.2907 19.1315 66.4113C18.8812 66.532 18.5997 66.5923 18.2868 66.5923ZM18.26 66.0493C18.4656 66.0493 18.6443 66.0113 18.7963 65.9353C18.9527 65.8594 19.0756 65.7543 19.165 65.6203C19.2544 65.4817 19.2991 65.3208 19.2991 65.1376C19.2991 64.8605 19.203 64.6415 19.0108 64.4806C18.8186 64.3152 18.5572 64.2325 18.2265 64.2325C18.0119 64.2325 17.8242 64.2728 17.6633 64.3532C17.5024 64.4337 17.3751 64.5432 17.2812 64.6817C17.1918 64.8158 17.1471 64.97 17.1471 65.1443C17.1471 65.3052 17.1896 65.4549 17.2745 65.5934C17.3594 65.7275 17.4846 65.837 17.6499 65.9219C17.8153 66.0069 18.0186 66.0493 18.26 66.0493Z" fill="#9E9FA7"/>
<path d="M14.6257 81.7456V77.321L14.9139 77.6361H13.5664V77.0529H15.2894V81.7456H14.6257ZM16.2488 80.5925V80.1233L18.6488 77.0529H19.3728L16.9929 80.1233L16.651 80.016H20.3985V80.5925H16.2488ZM18.8566 81.7456V80.5925L18.8767 80.016V78.997H19.5069V81.7456H18.8566Z" fill="#9E9FA7"/>
<path d="M14.6257 96.9524V92.5278L14.9139 92.8429H13.5664V92.2596H15.2894V96.9524H14.6257ZM16.2421 96.9524V96.4965L18.1527 94.6529C18.3226 94.492 18.4477 94.3513 18.5281 94.2306C18.6131 94.1055 18.6689 93.9915 18.6957 93.8887C18.727 93.7814 18.7427 93.6786 18.7427 93.5803C18.7427 93.339 18.6578 93.149 18.4879 93.0105C18.3181 92.8719 18.07 92.8027 17.7438 92.8027C17.4935 92.8027 17.2678 92.8451 17.0667 92.93C16.8656 93.0105 16.6913 93.1379 16.5438 93.3122L16.0879 92.9166C16.2667 92.6887 16.5058 92.5144 16.8052 92.3937C17.1091 92.2686 17.4421 92.206 17.8041 92.206C18.1304 92.206 18.4142 92.2596 18.6555 92.3669C18.8969 92.4697 19.0823 92.6194 19.2119 92.8161C19.346 93.0127 19.4131 93.2451 19.4131 93.5133C19.4131 93.6652 19.393 93.815 19.3527 93.9624C19.3125 94.1099 19.2365 94.2664 19.1248 94.4317C19.0131 94.5971 18.8522 94.7826 18.6421 94.9881L16.9393 96.6306L16.7784 96.3692H19.6142V96.9524H16.2421Z" fill="#9E9FA7"/>
<path d="M14.6257 112.159V107.735L14.9139 108.05H13.5664V107.467H15.2894V112.159H14.6257ZM18.2332 112.213C17.8667 112.213 17.5382 112.119 17.2477 111.931C16.9617 111.744 16.7337 111.471 16.5639 111.113C16.3985 110.756 16.3158 110.322 16.3158 109.813C16.3158 109.303 16.3985 108.87 16.5639 108.512C16.7337 108.155 16.9617 107.882 17.2477 107.694C17.5382 107.507 17.8667 107.413 18.2332 107.413C18.5952 107.413 18.9214 107.507 19.2119 107.694C19.5024 107.882 19.7304 108.155 19.8957 108.512C20.0611 108.87 20.1438 109.303 20.1438 109.813C20.1438 110.322 20.0611 110.756 19.8957 111.113C19.7304 111.471 19.5024 111.744 19.2119 111.931C18.9214 112.119 18.5952 112.213 18.2332 112.213ZM18.2332 111.616C18.479 111.616 18.6935 111.549 18.8767 111.415C19.0645 111.281 19.2097 111.08 19.3125 110.812C19.4198 110.544 19.4734 110.211 19.4734 109.813C19.4734 109.415 19.4198 109.082 19.3125 108.814C19.2097 108.546 19.0645 108.345 18.8767 108.211C18.6935 108.077 18.479 108.01 18.2332 108.01C17.9874 108.01 17.7706 108.077 17.5829 108.211C17.3952 108.345 17.2477 108.546 17.1404 108.814C17.0376 109.082 16.9862 109.415 16.9862 109.813C16.9862 110.211 17.0376 110.544 17.1404 110.812C17.2477 111.08 17.3952 111.281 17.5829 111.415C17.7706 111.549 17.9874 111.616 18.2332 111.616Z" fill="#9E9FA7"/>
<path d="M16.6648 127.42C16.2849 127.42 15.9564 127.364 15.6793 127.252C15.4022 127.14 15.1877 126.982 15.0357 126.776C14.8838 126.566 14.8078 126.32 14.8078 126.039C14.8078 125.762 14.8793 125.527 15.0223 125.335C15.1698 125.138 15.3821 124.991 15.6592 124.892C15.9363 124.79 16.2715 124.738 16.6648 124.738C17.0581 124.738 17.3933 124.79 17.6704 124.892C17.9519 124.991 18.1665 125.138 18.3139 125.335C18.4614 125.531 18.5352 125.766 18.5352 126.039C18.5352 126.32 18.4592 126.566 18.3072 126.776C18.1553 126.982 17.9385 127.14 17.657 127.252C17.3754 127.364 17.0447 127.42 16.6648 127.42ZM16.6648 126.877C17.0402 126.877 17.3329 126.801 17.543 126.649C17.7575 126.492 17.8648 126.282 17.8648 126.019C17.8648 125.759 17.7575 125.556 17.543 125.409C17.3329 125.257 17.0402 125.181 16.6648 125.181C16.2938 125.181 16.0033 125.257 15.7933 125.409C15.5832 125.556 15.4782 125.759 15.4782 126.019C15.4782 126.282 15.5832 126.492 15.7933 126.649C16.0033 126.801 16.2938 126.877 16.6648 126.877ZM16.6648 125.1C16.3072 125.1 16.0033 125.053 15.753 124.959C15.5028 124.861 15.3106 124.723 15.1765 124.544C15.0424 124.36 14.9754 124.144 14.9754 123.893C14.9754 123.63 15.0447 123.404 15.1832 123.216C15.3262 123.024 15.5251 122.877 15.7799 122.774C16.0346 122.671 16.3296 122.62 16.6648 122.62C17.0044 122.62 17.3017 122.671 17.5564 122.774C17.8112 122.877 18.01 123.024 18.1531 123.216C18.2961 123.404 18.3676 123.63 18.3676 123.893C18.3676 124.144 18.3005 124.36 18.1665 124.544C18.0324 124.723 17.838 124.861 17.5832 124.959C17.3285 125.053 17.0223 125.1 16.6648 125.1ZM16.6648 124.671C16.991 124.671 17.2458 124.604 17.429 124.47C17.6167 124.336 17.7106 124.153 17.7106 123.92C17.7106 123.683 17.6145 123.498 17.4223 123.364C17.2301 123.23 16.9776 123.163 16.6648 123.163C16.3519 123.163 16.1016 123.23 15.9139 123.364C15.7307 123.498 15.6391 123.683 15.6391 123.92C15.6391 124.153 15.7285 124.336 15.9072 124.47C16.0905 124.604 16.343 124.671 16.6648 124.671Z" fill="#9E9FA7"/>
<path d="M16.8056 142.627C16.3899 142.627 16.0346 142.535 15.7396 142.352C15.4447 142.169 15.219 141.905 15.0625 141.561C14.9106 141.212 14.8346 140.788 14.8346 140.287C14.8346 139.755 14.9285 139.306 15.1162 138.939C15.3039 138.573 15.5653 138.296 15.9005 138.108C16.2357 137.92 16.6201 137.827 17.0536 137.827C17.2771 137.827 17.4894 137.849 17.6905 137.894C17.8961 137.938 18.0726 138.008 18.2201 138.101L17.9653 138.624C17.8447 138.539 17.7061 138.481 17.5497 138.45C17.3977 138.419 17.2368 138.403 17.067 138.403C16.5888 138.403 16.2089 138.553 15.9273 138.852C15.6458 139.147 15.505 139.588 15.505 140.173C15.505 140.267 15.5095 140.379 15.5184 140.508C15.5273 140.638 15.5497 140.765 15.5854 140.89L15.3575 140.662C15.4246 140.457 15.5296 140.285 15.6726 140.146C15.8201 140.003 15.9944 139.898 16.1955 139.831C16.4011 139.76 16.6223 139.724 16.8592 139.724C17.172 139.724 17.4491 139.782 17.6905 139.898C17.9318 140.014 18.1218 140.18 18.2603 140.394C18.3989 140.604 18.4681 140.855 18.4681 141.145C18.4681 141.445 18.3944 141.706 18.2469 141.929C18.0994 142.153 17.9005 142.325 17.6503 142.446C17.4 142.566 17.1184 142.627 16.8056 142.627ZM16.7787 142.084C16.9843 142.084 17.1631 142.046 17.3151 141.97C17.4715 141.894 17.5944 141.789 17.6838 141.655C17.7732 141.516 17.8179 141.355 17.8179 141.172C17.8179 140.895 17.7218 140.676 17.5296 140.515C17.3374 140.35 17.076 140.267 16.7452 140.267C16.5307 140.267 16.343 140.307 16.1821 140.388C16.0212 140.468 15.8938 140.577 15.8 140.716C15.7106 140.85 15.6659 141.004 15.6659 141.179C15.6659 141.339 15.7084 141.489 15.7933 141.628C15.8782 141.762 16.0033 141.871 16.1687 141.956C16.3341 142.041 16.5374 142.084 16.7787 142.084Z" fill="#9E9FA7"/>
<path d="M14.7676 156.627V156.158L17.1676 153.087H17.8916L15.5117 156.158L15.1698 156.05H18.9173V156.627H14.7676ZM17.3754 157.78V156.627L17.3955 156.05V155.031H18.0257V157.78H17.3754Z" fill="#9E9FA7"/>
<path d="M15.2609 172.987V172.531L17.1715 170.687C17.3413 170.526 17.4665 170.386 17.5469 170.265C17.6318 170.14 17.6877 170.026 17.7145 169.923C17.7458 169.816 17.7614 169.713 17.7614 169.615C17.7614 169.373 17.6765 169.183 17.5067 169.045C17.3368 168.906 17.0888 168.837 16.7625 168.837C16.5123 168.837 16.2866 168.879 16.0854 168.964C15.8843 169.045 15.71 169.172 15.5625 169.346L15.1067 168.951C15.2854 168.723 15.5246 168.549 15.824 168.428C16.1279 168.303 16.4609 168.24 16.8229 168.24C17.1491 168.24 17.4329 168.294 17.6743 168.401C17.9156 168.504 18.1011 168.654 18.2307 168.85C18.3648 169.047 18.4318 169.279 18.4318 169.548C18.4318 169.7 18.4117 169.849 18.3715 169.997C18.3313 170.144 18.2553 170.301 18.1436 170.466C18.0318 170.631 17.8709 170.817 17.6609 171.022L15.9581 172.665L15.7972 172.403H18.6329V172.987H15.2609Z" fill="#9E9FA7"/>
<path d="M16.7519 188.247C16.3854 188.247 16.057 188.153 15.7665 187.966C15.4804 187.778 15.2525 187.505 15.0827 187.148C14.9173 186.79 14.8346 186.357 14.8346 185.847C14.8346 185.338 14.9173 184.904 15.0827 184.547C15.2525 184.189 15.4804 183.916 15.7665 183.729C16.057 183.541 16.3854 183.447 16.7519 183.447C17.1139 183.447 17.4402 183.541 17.7307 183.729C18.0212 183.916 18.2491 184.189 18.4145 184.547C18.5799 184.904 18.6626 185.338 18.6626 185.847C18.6626 186.357 18.5799 186.79 18.4145 187.148C18.2491 187.505 18.0212 187.778 17.7307 187.966C17.4402 188.153 17.1139 188.247 16.7519 188.247ZM16.7519 187.651C16.9977 187.651 17.2123 187.584 17.3955 187.449C17.5832 187.315 17.7285 187.114 17.8313 186.846C17.9385 186.578 17.9922 186.245 17.9922 185.847C17.9922 185.449 17.9385 185.116 17.8313 184.848C17.7285 184.58 17.5832 184.379 17.3955 184.245C17.2123 184.111 16.9977 184.044 16.7519 184.044C16.5061 184.044 16.2894 184.111 16.1016 184.245C15.9139 184.379 15.7665 184.58 15.6592 184.848C15.5564 185.116 15.505 185.449 15.505 185.847C15.505 186.245 15.5564 186.578 15.6592 186.846C15.7665 187.114 15.9139 187.315 16.1016 187.449C16.2894 187.584 16.5061 187.651 16.7519 187.651Z" fill="#9E9FA7"/>
<path d="M25.918 60.5387H424.172" stroke="#E9E9E9" stroke-width="0.64246" stroke-linecap="round"/>
<path d="M25.918 75.8531H424.172" stroke="#E9E9E9" stroke-width="0.64246" stroke-linecap="round"/>
<path d="M25.918 91.1678H424.172" stroke="#E9E9E9" stroke-width="0.64246" stroke-linecap="round"/>
<path d="M25.918 106.482H424.172" stroke="#E9E9E9" stroke-width="0.64246" stroke-linecap="round"/>
<path d="M25.918 121.797H424.172" stroke="#E9E9E9" stroke-width="0.64246" stroke-linecap="round"/>
<path d="M25.918 137.112H424.172" stroke="#E9E9E9" stroke-width="0.64246" stroke-linecap="round"/>
<path d="M25.918 152.426H424.172" stroke="#E9E9E9" stroke-width="0.64246" stroke-linecap="round"/>
<path d="M25.918 167.741H424.172" stroke="#E9E9E9" stroke-width="0.64246" stroke-linecap="round"/>
<path d="M25.918 183.055H424.172" stroke="#E9E9E9" stroke-width="1.28492" stroke-linecap="round"/>
<path d="M45.9437 139.368C45.9437 137.239 47.6696 135.513 49.7985 135.513C51.9274 135.513 53.6532 137.239 53.6532 139.368V183.055H45.9437V139.368Z" fill="url(#paint0_linear_1_248)"/>
<path d="M78.8773 109.172C78.8773 107.043 80.6032 105.318 82.7321 105.318C84.861 105.318 86.5868 107.043 86.5868 109.172V183.055H78.8773V109.172Z" fill="url(#paint1_linear_1_248)"/>
<path d="M113.613 155.43C113.613 153.301 115.338 151.575 117.467 151.575C119.596 151.575 121.322 153.301 121.322 155.43V183.056H113.613V155.43Z" fill="url(#paint2_linear_1_248)"/>
<path d="M146.546 139.368C146.546 137.239 148.272 135.514 150.401 135.514C152.53 135.514 154.256 137.239 154.256 139.368V183.056H146.546V139.368Z" fill="url(#paint3_linear_1_248)"/>
<path d="M180.38 139.368C180.38 137.239 182.106 135.513 184.235 135.513C186.364 135.513 188.09 137.239 188.09 139.368V183.055H180.38V139.368Z" fill="url(#paint4_linear_1_248)"/>
<path d="M211.512 170.894C211.512 168.655 213.327 166.84 215.566 166.84C217.805 166.84 219.62 168.655 219.62 170.894V183.055H211.512V170.894Z" fill="url(#paint5_linear_1_248)"/>
<path d="M243.943 123.307C243.943 121.178 245.669 119.452 247.798 119.452C249.927 119.452 251.653 121.178 251.653 123.307V183.055H243.943V123.307Z" fill="url(#paint6_linear_1_248)"/>
<path d="M276.877 139.364C276.877 137.125 278.692 135.31 280.931 135.31C283.17 135.31 284.985 137.125 284.985 139.364V183.055H276.877V139.364Z" fill="url(#paint7_linear_1_248)"/>
<path d="M312.01 170.894C312.01 168.655 313.825 166.84 316.064 166.84C318.303 166.84 320.118 168.655 320.118 170.894V183.055H312.01V170.894Z" fill="url(#paint8_linear_1_248)"/>
<path d="M346.243 123.306C346.243 121.177 347.969 119.452 350.097 119.452C352.226 119.452 353.952 121.177 353.952 123.306V183.055H346.243V123.306Z" fill="url(#paint9_linear_1_248)"/>
<path d="M380.077 123.306C380.077 121.177 381.803 119.452 383.932 119.452C386.061 119.452 387.787 121.177 387.787 123.306V183.055H380.077V123.306Z" fill="url(#paint10_linear_1_248)"/>
<path d="M413.911 123.307C413.911 121.178 415.637 119.452 417.766 119.452C419.895 119.452 421.621 121.178 421.621 123.307V183.055H413.911V123.307Z" fill="url(#paint11_linear_1_248)"/>
<path d="M45.4494 197.036C45.1723 197.036 44.913 196.978 44.6717 196.862C44.4304 196.745 44.2337 196.578 44.0818 196.359L44.4706 195.903C44.6002 196.082 44.7454 196.22 44.9063 196.318C45.0717 196.412 45.2527 196.459 45.4494 196.459C45.9857 196.459 46.2538 196.142 46.2538 195.507V192.873H44.5577V192.289H46.9175V195.474C46.9175 195.997 46.7924 196.388 46.5421 196.647C46.2963 196.906 45.932 197.036 45.4494 197.036ZM50.3948 196.982V196.231L50.3613 196.091V194.81C50.3613 194.537 50.2808 194.327 50.12 194.18C49.9635 194.028 49.7267 193.952 49.4093 193.952C49.1993 193.952 48.9937 193.988 48.7926 194.059C48.5915 194.126 48.4216 194.218 48.2831 194.334L48.0149 193.851C48.1982 193.704 48.4172 193.592 48.6719 193.516C48.9311 193.436 49.2015 193.396 49.4831 193.396C49.9702 193.396 50.3457 193.514 50.6093 193.751C50.873 193.988 51.0049 194.35 51.0049 194.837V196.982H50.3948ZM49.2283 197.022C48.9646 197.022 48.7322 196.978 48.5311 196.888C48.3345 196.799 48.1825 196.676 48.0753 196.52C47.968 196.359 47.9144 196.178 47.9144 195.977C47.9144 195.784 47.9591 195.61 48.0484 195.454C48.1423 195.297 48.292 195.172 48.4976 195.078C48.7077 194.984 48.9892 194.937 49.3423 194.937H50.4686V195.4H49.3691C49.0473 195.4 48.8306 195.454 48.7188 195.561C48.6071 195.668 48.5512 195.798 48.5512 195.95C48.5512 196.124 48.6205 196.265 48.7591 196.372C48.8976 196.475 49.0898 196.526 49.3356 196.526C49.5769 196.526 49.787 196.473 49.9658 196.365C50.149 196.258 50.2808 196.102 50.3613 195.896L50.4887 196.339C50.4038 196.549 50.254 196.716 50.0395 196.841C49.825 196.962 49.5546 197.022 49.2283 197.022ZM54.0931 193.396C54.3836 193.396 54.6383 193.451 54.8573 193.563C55.0808 193.675 55.2551 193.845 55.3802 194.073C55.5054 194.301 55.5679 194.589 55.5679 194.937V196.982H54.9244V195.011C54.9244 194.667 54.8395 194.408 54.6696 194.234C54.5043 194.059 54.2696 193.972 53.9657 193.972C53.7378 193.972 53.5389 194.017 53.3691 194.106C53.1992 194.196 53.0674 194.327 52.9735 194.502C52.8841 194.676 52.8394 194.893 52.8394 195.152V196.982H52.1959V193.429H52.8126V194.388L52.7121 194.133C52.8283 193.901 53.007 193.72 53.2484 193.59C53.4897 193.46 53.7713 193.396 54.0931 193.396Z" fill="#9E9FA7"/>
<path d="M78.781 194.508H81.2011V195.085H78.781V194.508ZM78.8481 196.982H78.1777V192.289H81.4894V192.873H78.8481V196.982ZM83.8101 197.022C83.4302 197.022 83.095 196.944 82.8045 196.788C82.5184 196.631 82.295 196.417 82.1341 196.144C81.9777 195.872 81.8995 195.559 81.8995 195.206C81.8995 194.853 81.9754 194.54 82.1274 194.267C82.2838 193.994 82.4961 193.782 82.7643 193.63C83.0369 193.474 83.343 193.396 83.6827 193.396C84.0268 193.396 84.3307 193.472 84.5944 193.624C84.8581 193.775 85.0637 193.99 85.2112 194.267C85.3631 194.54 85.4391 194.859 85.4391 195.226C85.4391 195.253 85.4369 195.284 85.4324 195.32C85.4324 195.355 85.4302 195.389 85.4257 195.42H82.4022V194.958H85.0905L84.8291 195.118C84.8335 194.891 84.7866 194.687 84.6883 194.508C84.59 194.33 84.4536 194.191 84.2793 194.093C84.1095 193.99 83.9106 193.939 83.6827 193.939C83.4592 193.939 83.2603 193.99 83.086 194.093C82.9117 194.191 82.7754 194.332 82.6771 194.515C82.5788 194.694 82.5296 194.899 82.5296 195.132V195.239C82.5296 195.476 82.5833 195.688 82.6905 195.876C82.8022 196.059 82.9564 196.202 83.1531 196.305C83.3497 196.408 83.5754 196.459 83.8302 196.459C84.0402 196.459 84.2302 196.424 84.4 196.352C84.5743 196.28 84.7263 196.173 84.8559 196.03L85.2112 196.446C85.0503 196.634 84.8492 196.777 84.6078 196.875C84.371 196.973 84.105 197.022 83.8101 197.022ZM87.1992 196.982L85.6439 193.429H86.3143L87.6953 196.647H87.3735L88.7813 193.429H89.4115L87.8562 196.982H87.1992Z" fill="#9E9FA7"/>
<path d="M111.509 196.982V192.289H112.059L114.164 195.836H113.869L115.947 192.289H116.497L116.504 196.982H115.86L115.854 193.302H116.008L114.158 196.412H113.849L111.985 193.302H112.153V196.982H111.509ZM120.024 196.982V196.231L119.99 196.091V194.81C119.99 194.537 119.91 194.327 119.749 194.18C119.593 194.028 119.356 193.952 119.038 193.952C118.828 193.952 118.623 193.988 118.422 194.059C118.221 194.126 118.051 194.218 117.912 194.334L117.644 193.851C117.827 193.704 118.046 193.592 118.301 193.516C118.56 193.436 118.831 193.396 119.112 193.396C119.599 193.396 119.975 193.514 120.238 193.751C120.502 193.988 120.634 194.35 120.634 194.837V196.982H120.024ZM118.857 197.022C118.594 197.022 118.361 196.978 118.16 196.888C117.964 196.799 117.812 196.676 117.704 196.52C117.597 196.359 117.544 196.178 117.544 195.977C117.544 195.784 117.588 195.61 117.678 195.454C117.771 195.297 117.921 195.172 118.127 195.078C118.337 194.984 118.618 194.937 118.971 194.937H120.098V195.4H118.998C118.676 195.4 118.46 195.454 118.348 195.561C118.236 195.668 118.18 195.798 118.18 195.95C118.18 196.124 118.25 196.265 118.388 196.372C118.527 196.475 118.719 196.526 118.965 196.526C119.206 196.526 119.416 196.473 119.595 196.365C119.778 196.258 119.91 196.102 119.99 195.896L120.118 196.339C120.033 196.549 119.883 196.716 119.669 196.841C119.454 196.962 119.184 197.022 118.857 197.022ZM121.825 196.982V193.429H122.442V194.394L122.381 194.153C122.48 193.907 122.645 193.72 122.878 193.59C123.11 193.46 123.396 193.396 123.736 193.396V194.019C123.709 194.015 123.682 194.012 123.655 194.012C123.633 194.012 123.611 194.012 123.588 194.012C123.244 194.012 122.971 194.115 122.77 194.321C122.569 194.526 122.469 194.824 122.469 195.212V196.982H121.825Z" fill="#9E9FA7"/>
<path d="M145.031 196.982L147.157 192.289H147.82L149.952 196.982H149.248L147.351 192.665H147.619L145.722 196.982H145.031ZM145.936 195.809L146.117 195.273H148.759L148.953 195.809H145.936ZM152.442 197.022C152.138 197.022 151.863 196.955 151.617 196.821C151.376 196.683 151.184 196.479 151.041 196.211C150.902 195.943 150.833 195.608 150.833 195.206C150.833 194.803 150.905 194.468 151.048 194.2C151.195 193.932 151.39 193.731 151.631 193.597C151.877 193.463 152.147 193.396 152.442 193.396C152.791 193.396 153.099 193.472 153.367 193.624C153.635 193.775 153.848 193.988 154.004 194.26C154.16 194.529 154.239 194.844 154.239 195.206C154.239 195.568 154.16 195.885 154.004 196.158C153.848 196.43 153.635 196.643 153.367 196.794C153.099 196.946 152.791 197.022 152.442 197.022ZM150.558 196.982V192.008H151.202V194.374L151.135 195.199L151.175 196.024V196.982H150.558ZM152.388 196.459C152.616 196.459 152.82 196.408 152.998 196.305C153.182 196.202 153.325 196.057 153.428 195.869C153.535 195.677 153.588 195.456 153.588 195.206C153.588 194.951 153.535 194.732 153.428 194.549C153.325 194.361 153.182 194.216 152.998 194.113C152.82 194.01 152.616 193.959 152.388 193.959C152.165 193.959 151.962 194.01 151.778 194.113C151.6 194.216 151.457 194.361 151.349 194.549C151.247 194.732 151.195 194.951 151.195 195.206C151.195 195.456 151.247 195.677 151.349 195.869C151.457 196.057 151.6 196.202 151.778 196.305C151.962 196.408 152.165 196.459 152.388 196.459ZM155.128 196.982V193.429H155.745V194.394L155.684 194.153C155.783 193.907 155.948 193.72 156.18 193.59C156.413 193.46 156.699 193.396 157.039 193.396V194.019C157.012 194.015 156.985 194.012 156.958 194.012C156.936 194.012 156.913 194.012 156.891 194.012C156.547 194.012 156.274 194.115 156.073 194.321C155.872 194.526 155.772 194.824 155.772 195.212V196.982H155.128Z" fill="#9E9FA7"/>
<path d="M179.074 196.982V192.289H179.623L181.728 195.836H181.433L183.512 192.289H184.061L184.068 196.982H183.425L183.418 193.302H183.572L181.722 196.412H181.413L179.55 193.302H179.717V196.982H179.074ZM187.588 196.982V196.231L187.555 196.091V194.81C187.555 194.537 187.474 194.327 187.313 194.18C187.157 194.028 186.92 193.952 186.603 193.952C186.393 193.952 186.187 193.988 185.986 194.059C185.785 194.126 185.615 194.218 185.476 194.334L185.208 193.851C185.392 193.704 185.611 193.592 185.865 193.516C186.124 193.436 186.395 193.396 186.676 193.396C187.164 193.396 187.539 193.514 187.803 193.751C188.066 193.988 188.198 194.35 188.198 194.837V196.982H187.588ZM186.422 197.022C186.158 197.022 185.926 196.978 185.724 196.888C185.528 196.799 185.376 196.676 185.269 196.52C185.161 196.359 185.108 196.178 185.108 195.977C185.108 195.784 185.152 195.61 185.242 195.454C185.336 195.297 185.485 195.172 185.691 195.078C185.901 194.984 186.183 194.937 186.536 194.937H187.662V195.4H186.562C186.241 195.4 186.024 195.454 185.912 195.561C185.8 195.668 185.745 195.798 185.745 195.95C185.745 196.124 185.814 196.265 185.952 196.372C186.091 196.475 186.283 196.526 186.529 196.526C186.77 196.526 186.98 196.473 187.159 196.365C187.342 196.258 187.474 196.102 187.555 195.896L187.682 196.339C187.597 196.549 187.447 196.716 187.233 196.841C187.018 196.962 186.748 197.022 186.422 197.022ZM189.389 196.982V193.429H190.033V196.982H189.389ZM189.711 192.745C189.586 192.745 189.481 192.705 189.396 192.625C189.315 192.544 189.275 192.446 189.275 192.33C189.275 192.209 189.315 192.108 189.396 192.028C189.481 191.948 189.586 191.907 189.711 191.907C189.836 191.907 189.939 191.948 190.019 192.028C190.104 192.104 190.147 192.2 190.147 192.316C190.147 192.437 190.107 192.54 190.026 192.625C189.946 192.705 189.841 192.745 189.711 192.745Z" fill="#9E9FA7"/>
<path d="M213.009 197.036C212.732 197.036 212.472 196.978 212.231 196.862C211.99 196.745 211.793 196.578 211.641 196.359L212.03 195.903C212.16 196.082 212.305 196.22 212.466 196.318C212.631 196.412 212.812 196.459 213.009 196.459C213.545 196.459 213.813 196.142 213.813 195.507V192.873H212.117V192.289H214.477V195.474C214.477 195.997 214.352 196.388 214.101 196.647C213.856 196.906 213.491 197.036 213.009 197.036ZM217.244 197.022C216.94 197.022 216.671 196.967 216.439 196.855C216.211 196.743 216.032 196.573 215.903 196.345C215.778 196.113 215.715 195.822 215.715 195.474V193.429H216.359V195.4C216.359 195.749 216.441 196.01 216.607 196.184C216.776 196.359 217.013 196.446 217.317 196.446C217.541 196.446 217.735 196.401 217.901 196.312C218.066 196.218 218.193 196.084 218.283 195.91C218.372 195.731 218.417 195.516 218.417 195.266V193.429H219.06V196.982H218.45V196.024L218.551 196.278C218.435 196.515 218.26 196.698 218.028 196.828C217.795 196.958 217.534 197.022 217.244 197.022ZM220.285 196.982V192.008H220.929V196.982H220.285Z" fill="#9E9FA7"/>
<path d="M243.638 197.036C243.361 197.036 243.102 196.978 242.86 196.862C242.619 196.745 242.422 196.578 242.27 196.359L242.659 195.903C242.789 196.082 242.934 196.22 243.095 196.318C243.26 196.412 243.441 196.459 243.638 196.459C244.174 196.459 244.442 196.142 244.442 195.507V192.873H242.746V192.289H245.106V195.474C245.106 195.997 244.981 196.388 244.731 196.647C244.485 196.906 244.121 197.036 243.638 197.036ZM247.873 197.022C247.569 197.022 247.301 196.967 247.068 196.855C246.84 196.743 246.661 196.573 246.532 196.345C246.407 196.113 246.344 195.822 246.344 195.474V193.429H246.988V195.4C246.988 195.749 247.07 196.01 247.236 196.184C247.406 196.359 247.643 196.446 247.946 196.446C248.17 196.446 248.364 196.401 248.53 196.312C248.695 196.218 248.822 196.084 248.912 195.91C249.001 195.731 249.046 195.516 249.046 195.266V193.429H249.689V196.982H249.079V196.024L249.18 196.278C249.064 196.515 248.889 196.698 248.657 196.828C248.425 196.958 248.163 197.022 247.873 197.022ZM252.812 193.396C253.102 193.396 253.357 193.451 253.576 193.563C253.8 193.675 253.974 193.845 254.099 194.073C254.224 194.301 254.287 194.589 254.287 194.937V196.982H253.643V195.011C253.643 194.667 253.558 194.408 253.388 194.234C253.223 194.059 252.988 193.972 252.684 193.972C252.457 193.972 252.258 194.017 252.088 194.106C251.918 194.196 251.786 194.327 251.692 194.502C251.603 194.676 251.558 194.893 251.558 195.152V196.982H250.915V193.429H251.531V194.388L251.431 194.133C251.547 193.901 251.726 193.72 251.967 193.59C252.208 193.46 252.49 193.396 252.812 193.396Z" fill="#9E9FA7"/>
<path d="M275.656 196.982L277.781 192.289H278.444L280.576 196.982H279.872L277.975 192.665H278.243L276.346 196.982H275.656ZM276.561 195.809L276.742 195.273H279.383L279.577 195.809H276.561ZM282.705 198.323C282.379 198.323 282.062 198.276 281.753 198.182C281.449 198.093 281.201 197.963 281.009 197.793L281.317 197.297C281.483 197.44 281.686 197.552 281.927 197.632C282.169 197.717 282.421 197.76 282.685 197.76C283.105 197.76 283.413 197.662 283.61 197.465C283.807 197.268 283.905 196.969 283.905 196.567V195.816L283.972 195.112L283.939 194.401V193.429H284.549V196.499C284.549 197.125 284.392 197.586 284.079 197.881C283.767 198.175 283.308 198.323 282.705 198.323ZM282.625 196.835C282.281 196.835 281.972 196.763 281.7 196.62C281.431 196.473 281.217 196.269 281.056 196.01C280.9 195.751 280.821 195.451 280.821 195.112C280.821 194.768 280.9 194.468 281.056 194.213C281.217 193.954 281.431 193.753 281.7 193.61C281.972 193.467 282.281 193.396 282.625 193.396C282.929 193.396 283.206 193.458 283.456 193.583C283.706 193.704 283.905 193.892 284.053 194.146C284.205 194.401 284.281 194.723 284.281 195.112C284.281 195.496 284.205 195.816 284.053 196.07C283.905 196.325 283.706 196.517 283.456 196.647C283.206 196.772 282.929 196.835 282.625 196.835ZM282.698 196.272C282.935 196.272 283.145 196.222 283.329 196.124C283.512 196.026 283.655 195.889 283.758 195.715C283.865 195.541 283.919 195.34 283.919 195.112C283.919 194.884 283.865 194.683 283.758 194.508C283.655 194.334 283.512 194.2 283.329 194.106C283.145 194.008 282.935 193.959 282.698 193.959C282.462 193.959 282.249 194.008 282.062 194.106C281.878 194.2 281.733 194.334 281.626 194.508C281.523 194.683 281.472 194.884 281.472 195.112C281.472 195.34 281.523 195.541 281.626 195.715C281.733 195.889 281.878 196.026 282.062 196.124C282.249 196.222 282.462 196.272 282.698 196.272ZM287.3 197.022C286.943 197.022 286.625 196.944 286.348 196.788C286.071 196.631 285.852 196.417 285.691 196.144C285.53 195.867 285.45 195.554 285.45 195.206C285.45 194.853 285.53 194.54 285.691 194.267C285.852 193.994 286.071 193.782 286.348 193.63C286.625 193.474 286.943 193.396 287.3 193.396C287.653 193.396 287.968 193.474 288.245 193.63C288.527 193.782 288.746 193.994 288.902 194.267C289.063 194.535 289.144 194.848 289.144 195.206C289.144 195.559 289.063 195.872 288.902 196.144C288.746 196.417 288.527 196.631 288.245 196.788C287.968 196.944 287.653 197.022 287.3 197.022ZM287.3 196.459C287.528 196.459 287.731 196.408 287.91 196.305C288.093 196.202 288.236 196.057 288.339 195.869C288.442 195.677 288.493 195.456 288.493 195.206C288.493 194.951 288.442 194.732 288.339 194.549C288.236 194.361 288.093 194.216 287.91 194.113C287.731 194.01 287.528 193.959 287.3 193.959C287.072 193.959 286.869 194.01 286.69 194.113C286.511 194.216 286.368 194.361 286.261 194.549C286.154 194.732 286.1 194.951 286.1 195.206C286.1 195.456 286.154 195.677 286.261 195.869C286.368 196.057 286.511 196.202 286.69 196.305C286.869 196.408 287.072 196.459 287.3 196.459Z" fill="#9E9FA7"/>
<path d="M312.867 197.036C312.51 197.036 312.168 196.982 311.842 196.875C311.515 196.763 311.258 196.62 311.071 196.446L311.319 195.923C311.498 196.079 311.726 196.209 312.003 196.312C312.28 196.415 312.568 196.466 312.867 196.466C313.14 196.466 313.361 196.435 313.531 196.372C313.701 196.31 313.826 196.225 313.907 196.117C313.987 196.006 314.027 195.88 314.027 195.742C314.027 195.581 313.974 195.451 313.866 195.353C313.764 195.255 313.627 195.177 313.457 195.118C313.292 195.056 313.109 195.002 312.908 194.958C312.707 194.913 312.503 194.862 312.298 194.803C312.096 194.741 311.911 194.663 311.741 194.569C311.576 194.475 311.442 194.35 311.339 194.193C311.236 194.032 311.185 193.827 311.185 193.577C311.185 193.335 311.247 193.114 311.372 192.913C311.502 192.707 311.699 192.544 311.962 192.424C312.231 192.298 312.57 192.236 312.981 192.236C313.254 192.236 313.524 192.272 313.793 192.343C314.061 192.415 314.293 192.517 314.49 192.651L314.269 193.188C314.067 193.054 313.855 192.958 313.632 192.899C313.408 192.837 313.191 192.806 312.981 192.806C312.718 192.806 312.501 192.839 312.331 192.906C312.161 192.973 312.036 193.063 311.956 193.174C311.88 193.286 311.842 193.411 311.842 193.55C311.842 193.715 311.893 193.847 311.996 193.945C312.103 194.044 312.239 194.122 312.405 194.18C312.575 194.238 312.76 194.292 312.961 194.341C313.162 194.386 313.364 194.437 313.565 194.495C313.77 194.553 313.956 194.629 314.121 194.723C314.291 194.817 314.427 194.942 314.53 195.098C314.633 195.255 314.684 195.456 314.684 195.702C314.684 195.939 314.619 196.16 314.49 196.365C314.36 196.567 314.159 196.73 313.886 196.855C313.618 196.975 313.279 197.036 312.867 197.036ZM317.152 197.022C316.772 197.022 316.437 196.944 316.146 196.788C315.86 196.631 315.637 196.417 315.476 196.144C315.319 195.872 315.241 195.559 315.241 195.206C315.241 194.853 315.317 194.54 315.469 194.267C315.626 193.994 315.838 193.782 316.106 193.63C316.379 193.474 316.685 193.396 317.024 193.396C317.369 193.396 317.673 193.472 317.936 193.624C318.2 193.775 318.405 193.99 318.553 194.267C318.705 194.54 318.781 194.859 318.781 195.226C318.781 195.253 318.779 195.284 318.774 195.32C318.774 195.355 318.772 195.389 318.768 195.42H315.744V194.958H318.432L318.171 195.118C318.175 194.891 318.128 194.687 318.03 194.508C317.932 194.33 317.795 194.191 317.621 194.093C317.451 193.99 317.252 193.939 317.024 193.939C316.801 193.939 316.602 193.99 316.428 194.093C316.254 194.191 316.117 194.332 316.019 194.515C315.921 194.694 315.871 194.899 315.871 195.132V195.239C315.871 195.476 315.925 195.688 316.032 195.876C316.144 196.059 316.298 196.202 316.495 196.305C316.692 196.408 316.917 196.459 317.172 196.459C317.382 196.459 317.572 196.424 317.742 196.352C317.916 196.28 318.068 196.173 318.198 196.03L318.553 196.446C318.392 196.634 318.191 196.777 317.95 196.875C317.713 196.973 317.447 197.022 317.152 197.022ZM320.895 197.022C320.537 197.022 320.26 196.926 320.063 196.734C319.867 196.542 319.768 196.267 319.768 195.91V192.651H320.412V195.883C320.412 196.075 320.459 196.222 320.553 196.325C320.651 196.428 320.79 196.479 320.968 196.479C321.17 196.479 321.337 196.424 321.471 196.312L321.672 196.774C321.574 196.859 321.456 196.922 321.317 196.962C321.183 197.002 321.042 197.022 320.895 197.022ZM319.165 193.959V193.429H321.431V193.959H319.165Z" fill="#9E9FA7"/>
<path d="M346.049 197.036C345.691 197.036 345.359 196.975 345.05 196.855C344.746 196.734 344.483 196.567 344.259 196.352C344.036 196.133 343.861 195.878 343.736 195.588C343.611 195.297 343.548 194.98 343.548 194.636C343.548 194.292 343.611 193.974 343.736 193.684C343.861 193.393 344.036 193.141 344.259 192.926C344.483 192.707 344.746 192.537 345.05 192.417C345.354 192.296 345.687 192.236 346.049 192.236C346.407 192.236 346.735 192.296 347.035 192.417C347.338 192.533 347.602 192.701 347.826 192.92C348.054 193.134 348.228 193.387 348.348 193.677C348.474 193.968 348.536 194.287 348.536 194.636C348.536 194.984 348.474 195.304 348.348 195.594C348.228 195.885 348.054 196.14 347.826 196.359C347.602 196.573 347.338 196.741 347.035 196.862C346.735 196.978 346.407 197.036 346.049 197.036ZM346.049 196.439C346.308 196.439 346.547 196.394 346.766 196.305C346.99 196.216 347.182 196.091 347.343 195.93C347.508 195.764 347.636 195.572 347.725 195.353C347.819 195.134 347.866 194.895 347.866 194.636C347.866 194.377 347.819 194.137 347.725 193.918C347.636 193.699 347.508 193.51 347.343 193.349C347.182 193.183 346.99 193.056 346.766 192.967C346.547 192.877 346.308 192.832 346.049 192.832C345.785 192.832 345.542 192.877 345.318 192.967C345.099 193.056 344.907 193.183 344.742 193.349C344.576 193.51 344.447 193.699 344.353 193.918C344.264 194.137 344.219 194.377 344.219 194.636C344.219 194.895 344.264 195.134 344.353 195.353C344.447 195.572 344.576 195.764 344.742 195.93C344.907 196.091 345.099 196.216 345.318 196.305C345.542 196.394 345.785 196.439 346.049 196.439ZM350.962 197.022C350.658 197.022 350.39 196.967 350.158 196.855C349.93 196.743 349.751 196.573 349.621 196.345C349.496 196.113 349.433 195.822 349.433 195.474V193.429H350.077V195.4C350.077 195.749 350.16 196.01 350.325 196.184C350.495 196.359 350.732 196.446 351.036 196.446C351.259 196.446 351.454 196.401 351.619 196.312C351.784 196.218 351.912 196.084 352.001 195.91C352.09 195.731 352.135 195.516 352.135 195.266V193.429H352.779V196.982H352.169V196.024L352.269 196.278C352.153 196.515 351.979 196.698 351.746 196.828C351.514 196.958 351.252 197.022 350.962 197.022ZM355.224 197.022C354.867 197.022 354.589 196.926 354.393 196.734C354.196 196.542 354.098 196.267 354.098 195.91V192.651H354.741V195.883C354.741 196.075 354.788 196.222 354.882 196.325C354.98 196.428 355.119 196.479 355.298 196.479C355.499 196.479 355.667 196.424 355.801 196.312L356.002 196.774C355.903 196.859 355.785 196.922 355.646 196.962C355.512 197.002 355.372 197.022 355.224 197.022ZM353.494 193.959V193.429H355.76V193.959H353.494Z" fill="#9E9FA7"/>
<path d="M378.163 196.982V192.289H378.713L381.817 196.144H381.529V192.289H382.199V196.982H381.649L378.545 193.127H378.834V196.982H378.163ZM385.031 197.022C384.674 197.022 384.357 196.944 384.08 196.788C383.802 196.631 383.583 196.417 383.423 196.144C383.262 195.867 383.181 195.554 383.181 195.206C383.181 194.853 383.262 194.54 383.423 194.267C383.583 193.994 383.802 193.782 384.08 193.63C384.357 193.474 384.674 193.396 385.031 193.396C385.385 193.396 385.7 193.474 385.977 193.63C386.258 193.782 386.477 193.994 386.634 194.267C386.795 194.535 386.875 194.848 386.875 195.206C386.875 195.559 386.795 195.872 386.634 196.144C386.477 196.417 386.258 196.631 385.977 196.788C385.7 196.944 385.385 197.022 385.031 197.022ZM385.031 196.459C385.259 196.459 385.463 196.408 385.642 196.305C385.825 196.202 385.968 196.057 386.071 195.869C386.173 195.677 386.225 195.456 386.225 195.206C386.225 194.951 386.173 194.732 386.071 194.549C385.968 194.361 385.825 194.216 385.642 194.113C385.463 194.01 385.259 193.959 385.031 193.959C384.804 193.959 384.6 194.01 384.421 194.113C384.243 194.216 384.1 194.361 383.992 194.549C383.885 194.732 383.831 194.951 383.831 195.206C383.831 195.456 383.885 195.677 383.992 195.869C384.1 196.057 384.243 196.202 384.421 196.305C384.6 196.408 384.804 196.459 385.031 196.459ZM388.599 196.982L387.043 193.429H387.714L389.095 196.647H388.773L390.181 193.429H390.811L389.256 196.982H388.599Z" fill="#9E9FA7"/>
<path d="M412.396 196.982V192.289H414.373C414.874 192.289 415.314 192.388 415.694 192.584C416.079 192.781 416.376 193.056 416.586 193.409C416.8 193.762 416.908 194.171 416.908 194.636C416.908 195.101 416.8 195.51 416.586 195.863C416.376 196.216 416.079 196.491 415.694 196.687C415.314 196.884 414.874 196.982 414.373 196.982H412.396ZM413.066 196.399H414.333C414.722 196.399 415.057 196.325 415.339 196.178C415.625 196.03 415.846 195.825 416.003 195.561C416.159 195.293 416.237 194.984 416.237 194.636C416.237 194.283 416.159 193.974 416.003 193.711C415.846 193.447 415.625 193.241 415.339 193.094C415.057 192.946 414.722 192.873 414.333 192.873H413.066V196.399ZM419.423 197.022C419.043 197.022 418.708 196.944 418.417 196.788C418.131 196.631 417.908 196.417 417.747 196.144C417.59 195.872 417.512 195.559 417.512 195.206C417.512 194.853 417.588 194.54 417.74 194.267C417.896 193.994 418.109 193.782 418.377 193.63C418.649 193.474 418.956 193.396 419.295 193.396C419.639 193.396 419.943 193.472 420.207 193.624C420.471 193.775 420.676 193.99 420.824 194.267C420.976 194.54 421.052 194.859 421.052 195.226C421.052 195.253 421.05 195.284 421.045 195.32C421.045 195.355 421.043 195.389 421.038 195.42H418.015V194.958H420.703L420.442 195.118C420.446 194.891 420.399 194.687 420.301 194.508C420.203 194.33 420.066 194.191 419.892 194.093C419.722 193.99 419.523 193.939 419.295 193.939C419.072 193.939 418.873 193.99 418.699 194.093C418.524 194.191 418.388 194.332 418.29 194.515C418.191 194.694 418.142 194.899 418.142 195.132V195.239C418.142 195.476 418.196 195.688 418.303 195.876C418.415 196.059 418.569 196.202 418.766 196.305C418.962 196.408 419.188 196.459 419.443 196.459C419.653 196.459 419.843 196.424 420.013 196.352C420.187 196.28 420.339 196.173 420.468 196.03L420.824 196.446C420.663 196.634 420.462 196.777 420.22 196.875C419.984 196.973 419.718 197.022 419.423 197.022ZM421.571 196.982V196.567L423.85 193.737L423.977 193.959H421.611V193.429H424.494V193.851L422.214 196.674L422.067 196.453H424.547V196.982H421.571Z" fill="#9E9FA7"/>
<g clip-path="url(#clip0_1_248)">
<path d="M419.933 19.3793H422.313V21.7591" stroke="#848484" stroke-width="1.18994" stroke-linecap="round" stroke-linejoin="round"/>
<path d="M419.536 22.1558L422.313 19.3793" stroke="#848484" stroke-width="1.18994" stroke-linecap="round" stroke-linejoin="round"/>
<path d="M416.76 27.3131H414.38V24.9332" stroke="#848484" stroke-width="1.18994" stroke-linecap="round" stroke-linejoin="round"/>
<path d="M417.157 24.5363L414.38 27.3128" stroke="#848484" stroke-width="1.18994" stroke-linecap="round" stroke-linejoin="round"/>
<path d="M422.313 24.9332V27.3131H419.933" stroke="#848484" stroke-width="1.18994" stroke-linecap="round" stroke-linejoin="round"/>
<path d="M419.536 24.5363L422.313 27.3128" stroke="#848484" stroke-width="1.18994" stroke-linecap="round" stroke-linejoin="round"/>
<path d="M414.38 21.7591V19.3793H416.76" stroke="#848484" stroke-width="1.18994" stroke-linecap="round" stroke-linejoin="round"/>
<path d="M417.157 22.1558L414.38 19.3793" stroke="#848484" stroke-width="1.18994" stroke-linecap="round" stroke-linejoin="round"/>
</g>
<defs>
<linearGradient id="paint0_linear_1_248" x1="49.7985" y1="135.513" x2="49.7985" y2="183.055" gradientUnits="userSpaceOnUse">
<stop stop-color="#DF0000"/>
<stop offset="1" stop-color="#FF0000" stop-opacity="0.8"/>
</linearGradient>
<linearGradient id="paint1_linear_1_248" x1="82.7321" y1="105.318" x2="82.7321" y2="183.055" gradientUnits="userSpaceOnUse">
<stop stop-color="#DF0000"/>
<stop offset="1" stop-color="#FF0000" stop-opacity="0.8"/>
</linearGradient>
<linearGradient id="paint2_linear_1_248" x1="117.467" y1="151.575" x2="117.467" y2="183.056" gradientUnits="userSpaceOnUse">
<stop stop-color="#DF0000"/>
<stop offset="1" stop-color="#FF0000" stop-opacity="0.8"/>
</linearGradient>
<linearGradient id="paint3_linear_1_248" x1="150.401" y1="135.514" x2="150.401" y2="183.056" gradientUnits="userSpaceOnUse">
<stop stop-color="#DF0000"/>
<stop offset="1" stop-color="#FF0000" stop-opacity="0.8"/>
</linearGradient>
<linearGradient id="paint4_linear_1_248" x1="184.235" y1="135.513" x2="184.235" y2="183.055" gradientUnits="userSpaceOnUse">
<stop stop-color="#DF0000"/>
<stop offset="1" stop-color="#FF0000" stop-opacity="0.8"/>
</linearGradient>
<linearGradient id="paint5_linear_1_248" x1="215.566" y1="166.84" x2="215.566" y2="183.055" gradientUnits="userSpaceOnUse">
<stop stop-color="#DF0000"/>
<stop offset="1" stop-color="#FF0000" stop-opacity="0.8"/>
</linearGradient>
<linearGradient id="paint6_linear_1_248" x1="247.798" y1="119.452" x2="247.798" y2="183.055" gradientUnits="userSpaceOnUse">
<stop stop-color="#DF0000"/>
<stop offset="1" stop-color="#FF0000" stop-opacity="0.8"/>
</linearGradient>
<linearGradient id="paint7_linear_1_248" x1="280.931" y1="135.31" x2="280.931" y2="183.055" gradientUnits="userSpaceOnUse">
<stop stop-color="#DF0000"/>
<stop offset="1" stop-color="#FF0000" stop-opacity="0.8"/>
</linearGradient>
<linearGradient id="paint8_linear_1_248" x1="316.064" y1="166.84" x2="316.064" y2="183.055" gradientUnits="userSpaceOnUse">
<stop stop-color="#DF0000"/>
<stop offset="1" stop-color="#FF0000" stop-opacity="0.8"/>
</linearGradient>
<linearGradient id="paint9_linear_1_248" x1="350.097" y1="119.452" x2="350.097" y2="183.055" gradientUnits="userSpaceOnUse">
<stop stop-color="#DF0000"/>
<stop offset="1" stop-color="#FF0000" stop-opacity="0.8"/>
</linearGradient>
<linearGradient id="paint10_linear_1_248" x1="383.932" y1="119.452" x2="383.932" y2="183.055" gradientUnits="userSpaceOnUse">
<stop stop-color="#DF0000"/>
<stop offset="1" stop-color="#FF0000" stop-opacity="0.8"/>
</linearGradient>
<linearGradient id="paint11_linear_1_248" x1="417.766" y1="119.452" x2="417.766" y2="183.055" gradientUnits="userSpaceOnUse">
<stop stop-color="#DF0000"/>
<stop offset="1" stop-color="#FF0000" stop-opacity="0.8"/>
</linearGradient>
<clipPath id="clip0_1_248">
<rect width="12.6927" height="12.6927" fill="white" transform="translate(412 17)"/>
</clipPath>
</defs>
</svg>
